<svg width="40" height="46" viewBox="0 0 40 46" fill="none" xmlns="http://www.w3.org/2000/svg">
<path d="M31.9847 44.6523H5.73852C3.3631 44.6523 1.43058 42.8318 1.43058 40.5941V10.3326C1.43058 9.96044 1.11041 9.65874 0.715289 9.65874C0.320163 9.65874 0 9.96044 0 10.3326V40.5941C0 43.5749 2.57428 46 5.73852 46H31.9847C32.3798 46 32.7 45.6983 32.7 45.3262C32.7 44.954 32.3798 44.6523 31.9847 44.6523ZM14.5624 20.2544H13.2847C12.8896 20.2544 12.5694 20.5561 12.5694 20.9282C12.5694 21.3003 12.8896 21.602 13.2847 21.602H14.5624C14.9538 21.602 15.2722 21.902 15.2722 22.2706C15.2722 22.6393 14.9537 22.9393 14.5624 22.9393H13.9326C13.5375 22.9393 13.2173 23.241 13.2173 23.6131C13.2173 23.9852 13.5375 24.2869 13.9326 24.2869H14.5624C14.9538 24.2869 15.2722 24.5869 15.2722 24.9555C15.2722 25.3243 14.9537 25.6242 14.5624 25.6242H13.2847C12.8896 25.6242 12.5694 25.9259 12.5694 26.298C12.5694 26.6701 12.8896 26.9718 13.2847 26.9718H14.5624C15.7426 26.9718 16.7028 26.0674 16.7028 24.9555C16.7028 24.4405 16.4967 23.9699 16.1581 23.6131C16.4967 23.2563 16.7028 22.7857 16.7028 22.2706C16.7029 21.1588 15.7426 20.2544 14.5624 20.2544ZM15.2175 38.8873C14.8224 38.8873 14.5022 39.189 14.5022 39.5612C14.5022 39.9333 14.8224 40.235 15.2175 40.235H24.7823C25.1774 40.235 25.4976 39.9333 25.4976 39.5612C25.4976 39.189 25.1774 38.8873 24.7823 38.8873H15.2175ZM29.6856 35.9825C29.6856 35.6104 29.3655 35.3087 28.9703 35.3087H11.0296C10.6344 35.3087 10.3143 35.6104 10.3143 35.9825C10.3143 36.3546 10.6344 36.6563 11.0296 36.6563H28.9702C29.3654 36.6563 29.6856 36.3546 29.6856 35.9825ZM15.5349 11.5193C15.1398 11.5193 14.8196 11.821 14.8196 12.1931V12.8913C14.8196 13.2635 15.1398 13.5651 15.5349 13.5651C15.9301 13.5651 16.2502 13.2635 16.2502 12.8913V12.1931C16.2502 11.821 15.93 11.5193 15.5349 11.5193ZM28.4035 0H5.73852C2.57428 0 0 2.42506 0 5.40581V7.13925C0 7.51139 0.320163 7.81308 0.715289 7.81308C1.11041 7.81308 1.43058 7.51139 1.43058 7.13925V5.40581C1.43058 3.16816 3.3631 1.34766 5.73852 1.34766H27.6883V6.19212C27.6883 9.17296 30.2625 11.598 33.4268 11.598H38.5694V40.5941C38.5694 42.4846 37.2078 44.1085 35.2582 44.5433C34.8738 44.629 34.6359 44.992 34.727 45.3542C34.8048 45.6642 35.0984 45.873 35.4223 45.873C35.4769 45.873 35.5323 45.867 35.5877 45.8547C38.1855 45.2754 40 43.1122 40 40.5941V10.9242C39.9999 4.90053 34.7978 0 28.4035 0V0ZM33.4267 10.2504C31.0513 10.2504 29.1187 8.42986 29.1187 6.19212V1.37173C34.1553 1.70317 38.1919 5.50581 38.5438 10.2505H33.4267V10.2504ZM32.5365 25.7421V13.4103C32.5365 12.8352 32.2208 12.3201 31.6922 12.0325L22.1652 6.85094C20.8296 6.12456 19.1703 6.12456 17.8347 6.85094L8.30775 12.0325C7.77901 12.3201 7.46332 12.8351 7.46332 13.4103V25.7421C7.46332 26.3172 7.77901 26.8322 8.30775 27.1197L17.8347 32.3013C18.4793 32.6518 19.1994 32.8315 19.922 32.8436C19.9477 32.8462 19.9736 32.8478 20 32.8478C20.0263 32.8478 20.0522 32.8462 20.0779 32.8436C20.8005 32.8315 21.5206 32.6518 22.1652 32.3013L31.6921 27.1197C32.2209 26.8323 32.5365 26.3172 32.5365 25.7421ZM19.2847 31.4143C19.0302 31.3536 18.7827 31.2608 18.55 31.1342L9.02294 25.9525C8.91069 25.8915 8.8939 25.7945 8.8939 25.7421V15.1068L17.8346 19.9695C18.2889 20.2166 18.7809 20.3775 19.2846 20.4565V31.4143H19.2847ZM31.1059 25.7421C31.1059 25.7945 31.0891 25.8916 30.9769 25.9527L21.4499 31.1343C21.2172 31.2609 20.9697 31.3537 20.7152 31.4144V20.4565C21.2189 20.3776 21.7109 20.2166 22.1652 19.9695L31.1059 15.1068V25.7421ZM30.9769 13.6209L21.4499 18.8024C20.5556 19.2888 19.4443 19.2888 18.55 18.8024L9.02304 13.6209C8.91069 13.5598 8.8939 13.4626 8.8939 13.4103C8.8939 13.3578 8.91069 13.2608 9.02304 13.1997L18.55 8.01811C19.4443 7.53169 20.5556 7.53169 21.4499 8.01811L30.9769 13.1997C31.0892 13.2608 31.1059 13.3579 31.1059 13.4103C31.1059 13.4627 31.0891 13.5598 30.9769 13.6209ZM24.465 11.5193C24.0698 11.5193 23.7497 11.821 23.7497 12.1931V12.8913C23.7497 13.2635 24.0698 13.5651 24.465 13.5651C24.8601 13.5651 25.1803 13.2635 25.1803 12.8913V12.1931C25.1803 11.821 24.8601 11.5193 24.465 11.5193ZM21.6471 12.4142C21.3491 12.1698 20.8973 12.199 20.6379 12.4796C20.4767 12.6537 20.2443 12.7536 20 12.7536C19.7556 12.7536 19.5232 12.6537 19.362 12.4796C19.1023 12.199 18.6507 12.1698 18.3528 12.4142C18.055 12.6587 18.0239 13.0843 18.2834 13.3649C18.7163 13.8328 19.342 14.1012 19.9999 14.1012C20.6577 14.1012 21.2834 13.8329 21.7163 13.3649C21.976 13.0844 21.9449 12.6588 21.6471 12.4142ZM24.6319 26.972H25.6264C26.5724 26.972 27.4492 26.5285 27.9719 25.7857C28.9003 24.466 28.9003 22.7605 27.9718 21.4407C27.4492 20.6978 26.5724 20.2544 25.6264 20.2544H24.6319C23.8985 20.2544 23.3019 20.8164 23.3019 21.5072V25.719C23.3019 26.4099 23.8986 26.972 24.6319 26.972ZM24.7325 21.602H25.6264C26.0914 21.602 26.5225 21.8201 26.7794 22.1852C27.3896 23.0526 27.3896 24.1736 26.7795 25.0411C26.5225 25.4063 26.0914 25.6242 25.6264 25.6242H24.7325V21.602Z" fill="#5181DF"/>
</svg>
