<svg width="40" height="40" viewBox="0 0 40 40" fill="none" xmlns="http://www.w3.org/2000/svg">
<path d="M39.3333 32.3569H38V7.94198C37.9999 7.71907 37.972 7.49731 37.9173 7.28343L38.9706 6.07582C39.1563 5.86299 39.3037 5.61029 39.4042 5.33215C39.5047 5.05401 39.5565 4.75589 39.5565 4.45482C39.5565 4.15374 39.5047 3.85562 39.4042 3.57748C39.3037 3.29934 39.1563 3.04664 38.9706 2.83381L37.0848 0.671769C36.8991 0.458795 36.6786 0.289852 36.4359 0.174589C36.1933 0.0593257 35.9331 0 35.6705 0C35.4078 0 35.1477 0.0593257 34.905 0.174589C34.6623 0.289852 34.4418 0.458795 34.2561 0.671769L29.9522 5.60606H4.0375C3.4973 5.60674 2.9794 5.85307 2.59743 6.29099C2.21545 6.72891 2.0006 7.32266 2 7.94198V32.3569H0.666667C0.489856 32.3569 0.320286 32.4374 0.195262 32.5808C0.0702379 32.7241 0 32.9185 0 33.1212V36.7517C0.00083816 37.6129 0.299618 38.4386 0.83079 39.0475C1.36196 39.6565 2.08214 39.999 2.83333 40H37.1667C37.9179 39.999 38.638 39.6565 39.1692 39.0475C39.7004 38.4386 39.9992 37.6129 40 36.7517V33.1212C40 32.9185 39.9298 32.7241 39.8047 32.5808C39.6797 32.4374 39.5101 32.3569 39.3333 32.3569ZM17.3333 22.5205C18.0873 22.0634 18.7268 21.393 19.1913 20.573C19.6559 19.753 19.93 18.8106 19.9877 17.835H22.0549L21.3778 19.8536C21.3314 19.9916 21.321 20.142 21.3478 20.2866C21.3746 20.4313 21.4374 20.5639 21.5286 20.6684C21.6197 20.773 21.7354 20.845 21.8616 20.8757C21.9878 20.9063 22.119 20.8944 22.2393 20.8413L24.6667 19.771V26.2424H17.3333V22.5205ZM16 21.4963C15.3023 21.7233 14.5615 21.708 13.8714 21.4522C13.1813 21.1965 12.5729 20.7119 12.123 20.0597C11.6731 19.4075 11.4021 18.617 11.3442 17.7882C11.2862 16.9593 11.444 16.1294 11.7975 15.4034C12.151 14.6773 12.6843 14.0878 13.3301 13.7093C13.9759 13.3308 14.705 13.1804 15.4254 13.2771C16.1457 13.3737 16.8249 13.7132 17.3769 14.2524C17.929 14.7916 18.3292 15.5064 18.5269 16.3064H16.6667C16.4899 16.3064 16.3203 16.3869 16.1953 16.5303C16.0702 16.6736 16 16.868 16 17.0707V21.4963ZM17.3333 17.835H18.6508C18.6068 18.3876 18.4677 18.9247 18.2415 19.4152C18.0154 19.9058 17.7067 20.3401 17.3333 20.6931V17.835ZM23.1607 18.7973L23.8253 16.8162L24.8887 18.0353L23.1607 18.7973ZM26.2506 17.4348L24.3491 15.2548L24.8148 13.8664H25.7622L26.0816 14.9651C26.1143 15.0777 26.1695 15.18 26.2426 15.2639C26.3158 15.3478 26.4051 15.411 26.5033 15.4486L27.4616 15.8148V16.9007L26.2506 17.4348ZM28.339 14.5389L27.9482 14.3896L33.7851 7.69778L34.7277 8.77794L28.7949 15.5803V15.2642C28.7949 15.1037 28.7509 14.9473 28.6691 14.8172C28.5873 14.687 28.4718 14.5897 28.339 14.5389ZM27.0057 13.3087L26.8754 12.8605C26.8312 12.7083 26.7463 12.5759 26.6327 12.4822C26.5192 12.3884 26.3828 12.3379 26.2429 12.3379H25.9663L31.8997 5.53555L32.8427 6.61667L27.0057 13.3087ZM23.8853 12.5613L23.8864 12.5626C23.8202 12.6377 23.7686 12.728 23.7347 12.8274L22.5681 16.3061H19.8997C19.7017 15.1958 19.221 14.1777 18.5184 13.3805C17.8157 12.5834 16.9227 12.0429 15.9522 11.8276C14.9817 11.6122 13.9773 11.7315 13.0659 12.1705C12.1546 12.6095 11.3772 13.3484 10.8321 14.2938C10.287 15.2393 9.99864 16.3487 10.0035 17.482C10.0083 18.6153 10.3061 19.7215 10.8592 20.6608C11.4123 21.6001 12.1959 22.3303 13.1109 22.7591C14.026 23.1879 15.0314 23.296 16 23.0698V27.0067C16 27.2094 16.0702 27.4038 16.1953 27.5472C16.3203 27.6905 16.4899 27.771 16.6667 27.771H25.3333C25.5101 27.771 25.6797 27.6905 25.8047 27.5472C25.9298 27.4038 26 27.2094 26 27.0067V19.1831L28.3676 18.1391C28.4545 18.1003 28.5334 18.0409 28.599 17.9648L28.5998 17.9656L33.9998 11.7747V29.2997H6V10.1919H25.9522L23.8853 12.5613ZM35.6705 7.6974L32.8421 4.45472L33.7849 3.3738L36.6133 6.61647L35.6705 7.6974ZM35.6705 1.52866C35.7581 1.52839 35.8449 1.54806 35.9258 1.58651C36.0068 1.62497 36.0802 1.68146 36.142 1.75269L38.0282 3.91502C38.09 3.98588 38.1391 4.07003 38.1726 4.16265C38.2061 4.25527 38.2233 4.35455 38.2233 4.45482C38.2233 4.55508 38.2061 4.65436 38.1726 4.74698C38.1391 4.8396 38.09 4.92375 38.0282 4.99461L37.5566 5.53526L34.7278 2.29287L35.199 1.75269C35.2607 1.68145 35.3342 1.62497 35.4151 1.58651C35.496 1.54805 35.5828 1.52839 35.6704 1.52866H35.6705ZM3.33333 7.94198C3.33355 7.72795 3.40781 7.52275 3.53982 7.37141C3.67183 7.22007 3.85081 7.13493 4.0375 7.13468H28.6188L27.2855 8.6633H5.33333C5.15652 8.6633 4.98695 8.74382 4.86193 8.88716C4.7369 9.03049 4.66667 9.2249 4.66667 9.42761V30.064C4.66667 30.2667 4.7369 30.4611 4.86193 30.6044C4.98695 30.7478 5.15652 30.8283 5.33333 30.8283H34.6667C34.8435 30.8283 35.0131 30.7478 35.1381 30.6044C35.2631 30.4611 35.3333 30.2667 35.3333 30.064V10.2458L36.6667 8.71718V32.3569H3.33333V7.94198ZM16.6667 33.8855H23.3333V34.6498C23.3331 34.8525 23.2628 35.0467 23.1379 35.19C23.0129 35.3333 22.8434 35.4139 22.6667 35.4141H17.3333C17.1566 35.4139 16.9871 35.3333 16.8621 35.19C16.7372 35.0467 16.6669 34.8525 16.6667 34.6498V33.8855ZM38.6667 36.7517C38.6662 37.2076 38.508 37.6447 38.2268 37.9671C37.9456 38.2895 37.5644 38.4708 37.1667 38.4714H2.83333C2.43565 38.4708 2.05439 38.2895 1.77318 37.9671C1.49198 37.6447 1.3338 37.2076 1.33333 36.7517V33.8855H15.3333V34.6498C15.3339 35.2577 15.5448 35.8406 15.9198 36.2704C16.2947 36.7003 16.8031 36.9421 17.3333 36.9428H22.6667C23.1969 36.9421 23.7053 36.7003 24.0802 36.2704C24.4552 35.8406 24.6661 35.2577 24.6667 34.6498V33.8855H38.6667V36.7517Z" fill="#F5421B"/>
</svg>
