<svg width="40" height="40" viewBox="0 0 40 40" fill="none" xmlns="http://www.w3.org/2000/svg">
<path d="M37.9661 15.333H35.7657L35.0448 12.8521C34.8623 12.2263 34.4535 11.6877 33.8955 11.3375C33.3374 10.9873 32.6684 10.8497 32.0144 10.9506L22.1455 12.483C21.8288 12.532 21.5275 12.6503 21.2636 12.8293C20.9998 13.0082 20.7802 13.2432 20.6211 13.5168C20.462 13.7904 20.3675 14.0957 20.3446 14.41C20.3216 14.7244 20.3708 15.0398 20.4885 15.333H18.9831C18.8492 15.333 18.7184 15.3719 18.607 15.445L16.7439 16.6663H15.5933V17.9996H16.7439L18.607 19.2209C18.7184 19.2939 18.8492 19.3329 18.9831 19.3329H22.0921L23.7402 20.9536C23.7924 21.6268 24.0361 22.272 24.4433 22.8156C24.8506 23.3593 25.405 23.7793 26.0434 24.028L27.1187 24.4509V29.8426L25.8344 32.3684C25.7877 32.461 25.7636 32.5631 25.764 32.6665H25.7628V39.9998H27.1187V33.3328H35.9322V39.9994H37.2882V32.6661H37.2869C37.2874 32.5627 37.2633 32.4606 37.2166 32.3679L35.9322 29.8421V19.3329H37.9661C38.5056 19.3329 39.0229 19.1222 39.4043 18.7471C39.7858 18.3721 40 17.8634 40 17.3329C40 16.8025 39.7858 16.2938 39.4043 15.9187C39.0229 15.5437 38.5056 15.333 37.9661 15.333ZM21.695 14.5617C21.6942 14.3778 21.7606 14.1997 21.8821 14.0599C22.0036 13.9201 22.1721 13.8278 22.357 13.7999L32.2258 12.2676C32.5528 12.217 32.8874 12.2858 33.1665 12.4609C33.4455 12.636 33.6499 12.9054 33.7411 13.2183L34.3555 15.333H30.7894L31.6659 14.471L30.7071 13.5282L28.8718 15.333H22.4793C22.2713 15.3327 22.072 15.2514 21.9249 15.1068C21.7779 14.9622 21.6952 14.7662 21.695 14.5617ZM18.1714 17.3329L19.1883 16.6663H21.1588C20.9916 17.0926 20.9717 17.5611 21.102 17.9996H19.1883L18.1714 17.3329ZM27.5377 31.9995L28.2156 30.6661H34.8353L35.5133 31.9995H27.5377ZM34.5763 29.3328H28.4746V23.9995C28.4746 23.8663 28.434 23.7361 28.3581 23.6258C28.2821 23.5154 28.1742 23.43 28.0484 23.3805L26.5471 22.79C26.1145 22.6215 25.7437 22.3288 25.4828 21.9499C25.222 21.5711 25.0833 21.1237 25.0848 20.6662C25.0848 20.5787 25.0673 20.492 25.0332 20.4111C24.9991 20.3302 24.9492 20.2567 24.8862 20.1948L22.5956 17.9424C22.4893 17.8379 22.4169 17.7047 22.3875 17.5597C22.3582 17.4147 22.3732 17.2643 22.4307 17.1277C22.4883 16.9911 22.5857 16.8744 22.7108 16.7922C22.8358 16.7101 22.9828 16.6663 23.1332 16.6663H23.3894C23.5073 16.6664 23.6237 16.6934 23.7293 16.7452L28.751 19.2142L30.7071 21.1376L31.6659 20.1948L30.7894 19.3329H34.5763V29.3328ZM29.3127 17.9996L26.6008 16.6663H35.9322V17.9996H29.3127ZM37.9661 17.9996H37.2882V16.6663H37.9661C38.146 16.6663 38.3184 16.7365 38.4455 16.8615C38.5727 16.9866 38.6441 17.1561 38.6441 17.3329C38.6441 17.5097 38.5727 17.6793 38.4455 17.8043C38.3184 17.9294 38.146 17.9996 37.9661 17.9996Z" fill="#F5961B"/>
<path d="M0 3.33335V37.333C0 37.5098 0.0714283 37.6794 0.198572 37.8044C0.325715 37.9294 0.498158 37.9997 0.677966 37.9997H24.4068V36.6663H1.35593V4.00001H31.8644V9.33328H33.2203V3.33335C33.2203 3.15654 33.1489 2.98697 33.0218 2.86195C32.8946 2.73692 32.7222 2.66669 32.5424 2.66669H0.677966C0.498158 2.66669 0.325715 2.73692 0.198572 2.86195C0.0714283 2.98697 0 3.15654 0 3.33335Z" fill="#F5961B"/>
<path d="M13.522 12.7316C15.5016 12.3739 17.5447 12.6025 19.3921 13.3882L19.93 12.1644C17.8018 11.2601 15.4456 11.008 13.1693 11.4412C10.8931 11.8744 8.8027 12.9727 7.17125 14.5925C5.5398 16.2124 4.44319 18.2785 4.02472 20.5208C3.60625 22.7632 3.88537 25.0775 4.82562 27.1614C5.76587 29.2453 7.32351 31.0019 9.29501 32.2016C11.2665 33.4013 13.5602 33.9883 15.8763 33.8859C18.1925 33.7836 20.4233 32.9966 22.2774 31.6278C24.1315 30.2591 25.5227 28.3722 26.269 26.2137L24.9847 25.7859C24.4469 27.3398 23.5286 28.7398 22.3106 29.8622C21.0926 30.9846 19.6123 31.795 18.0005 32.2219L23.0114 27.2946L22.0526 26.3517L15.7432 32.5562C15.1336 32.579 14.5232 32.5484 13.9191 32.4645L18.3824 28.0756L17.4237 27.1332L12.3513 32.121C11.8788 31.9783 11.4175 31.8017 10.9713 31.5927L15.4478 27.1901L14.489 26.2474L9.74578 30.912C9.36509 30.6642 9.00186 30.3914 8.65858 30.0954L12.5135 26.3048L11.5547 25.3619L7.69951 29.1528C7.39829 28.8155 7.12041 28.4586 6.86773 28.0847L11.274 23.7527L10.3154 22.8099L6.17316 26.8818C5.95988 26.4437 5.77979 25.9906 5.63434 25.5264L10.0339 21.1999L9.0751 20.2571L5.2851 23.9842C5.21787 23.5153 5.18412 23.0424 5.18409 22.5689C5.18409 22.4424 5.18722 22.3164 5.19197 22.1906L9.47265 17.9813L8.51383 17.0385L5.52866 19.9739C6.02958 18.1477 7.04616 16.4983 8.46075 15.2166C9.87534 13.9349 11.6301 13.0734 13.522 12.7316Z" fill="#F5961B"/>
<path d="M21.3548 9.83304C22.3671 9.83304 22.8183 8.9458 23.1478 8.29789C23.319 7.96106 23.5536 7.49973 23.7278 7.49973C23.9021 7.49973 24.1367 7.96106 24.3081 8.29789C24.6376 8.9458 25.0889 9.83304 26.1012 9.83304C27.1134 9.83304 27.5648 8.9458 27.8942 8.29789C28.0656 7.96106 28.3001 7.49973 28.4745 7.49973V6.16641C27.4623 6.16641 27.0109 7.05365 26.6815 7.70156C26.5101 8.03839 26.2756 8.49972 26.1012 8.49972C25.9267 8.49972 25.6922 8.03839 25.5208 7.70148C25.1914 7.05365 24.7401 6.16641 23.7278 6.16641C22.7156 6.16641 22.2645 7.05365 21.935 7.70156C21.7637 8.03839 21.5291 8.49972 21.3548 8.49972C21.1805 8.49972 20.9461 8.03839 20.7748 7.70156C20.4453 7.05374 19.9941 6.16641 18.9818 6.16641C17.9695 6.16641 17.5184 7.05365 17.189 7.70156C17.0178 8.03839 16.7832 8.49972 16.6089 8.49972C16.4347 8.49972 16.2002 8.03839 16.0289 7.70156C15.6995 7.05374 15.2483 6.16641 14.236 6.16641C13.2237 6.16641 12.7728 7.05365 12.4434 7.70156C12.2721 8.03839 12.0375 8.49972 11.8634 8.49972C11.6892 8.49972 11.4547 8.03839 11.2835 7.70165C10.9541 7.05374 10.503 6.16641 9.49081 6.16641C8.47861 6.16641 8.02768 7.05374 7.69835 7.70165C7.52708 8.03839 7.29259 8.49972 7.11861 8.49972C6.94463 8.49972 6.70996 8.03839 6.53861 7.70165C6.2092 7.05374 5.75793 6.16641 4.74573 6.16641V7.49973C4.91996 7.49973 5.15446 7.96106 5.32581 8.29789C5.65513 8.9458 6.10641 9.83304 7.11861 9.83304C8.13081 9.83304 8.58191 8.94572 8.91124 8.29781C9.08242 7.96098 9.31691 7.49973 9.4909 7.49973C9.66488 7.49973 9.89954 7.96106 10.0708 8.29781C10.4002 8.94572 10.8513 9.83304 11.8634 9.83304C12.8756 9.83304 13.3268 8.94572 13.6562 8.29781C13.8274 7.96098 14.062 7.49973 14.2361 7.49973C14.4101 7.49973 14.645 7.96106 14.8162 8.29789C15.1457 8.9458 15.5968 9.83304 16.609 9.83304C17.6212 9.83304 18.0725 8.9458 18.4019 8.29789C18.5732 7.96106 18.8078 7.49973 18.9819 7.49973C19.1561 7.49973 19.3908 7.96106 19.5621 8.29789C19.8915 8.9458 20.3426 9.83304 21.3548 9.83304Z" fill="#F5961B"/>
<path d="M24.4068 0H5.42371V1.33332H24.4068V0Z" fill="#F5961B"/>
<path d="M27.1186 0H25.7627V1.33332H27.1186V0Z" fill="#F5961B"/>
</svg>
