<svg width="40" height="40" viewBox="0 0 40 40" fill="none" xmlns="http://www.w3.org/2000/svg">
<path d="M31.3333 2.66636C31.3342 2.51084 31.28 2.36003 31.1803 2.24067C31.0806 2.12132 30.9419 2.04114 30.7887 2.01435L20.122 0.0110021C20.0409 -0.00366738 19.9578 -0.00366738 19.8767 0.0110021L9.21 2.01502C9.05699 2.04169 8.9184 2.12179 8.81891 2.24106C8.71941 2.36033 8.66546 2.51104 8.66667 2.66636V4.66637H0V32.6666H12V34.1199L2.55667 36.0093C1.45933 36.192 0 36.6666 0 38.6666V39.3333C2.84281e-05 39.4302 0.0211539 39.5258 0.0619067 39.6137C0.102659 39.7015 0.162061 39.7794 0.23598 39.842C0.309898 39.9046 0.396559 39.9503 0.489934 39.9759C0.583308 40.0016 0.681155 40.0066 0.776667 39.9907L12.722 38H27.278L39.2233 39.9907C39.2596 39.9971 39.2965 40.0002 39.3333 40C39.5101 40 39.6797 39.9298 39.8047 39.8047C39.9298 39.6797 40 39.5101 40 39.3333V38.6666C40 36.6726 38.55 36.1946 37.454 36.0106L28 34.1199V32.6666H40V4.66637H31.3333V2.66636ZM20 1.34501L27.5453 2.75969L20 4.64571L12.4547 2.75969L20 1.34501ZM30 3.52036V14.2044L20.6667 17.7045V5.85372L30 3.52036ZM10 3.52036L19.3333 5.85372V17.7045L10 14.2044V3.52036ZM9.09933 15.2911L19.766 19.2912C19.8425 19.3123 19.9209 19.3264 20 19.3332C20.0791 19.3264 20.1575 19.3123 20.234 19.2912L30.9007 15.2911C31.0278 15.2435 31.1374 15.1581 31.2147 15.0465C31.292 14.9348 31.3334 14.8022 31.3333 14.6665V8.66641H36V28.6666H4V8.66641H8.66667V14.6665C8.66658 14.8022 8.70797 14.9348 8.78529 15.0465C8.86261 15.1581 8.97218 15.2435 9.09933 15.2911ZM37.2 37.32L37.2207 37.324C38.38 37.5173 38.6367 37.8773 38.662 38.546L27.4407 36.6793C27.4053 36.6719 27.3694 36.6677 27.3333 36.6666H12.6667C12.6298 36.6664 12.593 36.6696 12.5567 36.676L1.33333 38.546C1.35867 37.8793 1.616 37.5173 2.79533 37.32L12.7333 35.3333H27.2667L37.2 37.32ZM13.3333 33.9999V32.6666H26.6667V33.9999H13.3333ZM38.6667 5.99972V31.3333H1.33333V5.99972H8.66667V7.33306H2.66667V29.9999H37.3333V7.33306H31.3333V5.99972H38.6667Z" fill="#67AA82"/>
<path d="M9.62598 20.7812C9.53582 20.8423 9.462 20.9245 9.41098 21.0208C9.35996 21.117 9.33329 21.2243 9.33331 21.3332V25.3332C9.33321 25.4665 9.37304 25.5967 9.44767 25.7071C9.5223 25.8175 9.62829 25.903 9.75198 25.9526L13.0853 27.2859C13.1663 27.3096 13.2493 27.3254 13.3333 27.3332C13.4173 27.3254 13.5003 27.3096 13.5813 27.2859L16.9146 25.9526C17.0383 25.903 17.1443 25.8175 17.219 25.7071C17.2936 25.5967 17.3334 25.4665 17.3333 25.3332V21.3332C17.3333 21.2243 17.3067 21.117 17.2556 21.0208C17.2046 20.9245 17.1308 20.8423 17.0406 20.7812C17 20.7565 16.9579 20.7342 16.9146 20.7145L13.5813 19.3812C13.4219 19.3185 13.2447 19.3185 13.0853 19.3812L9.75198 20.7145C9.70878 20.7344 9.66672 20.7566 9.62598 20.7812ZM16 24.8819L14 25.6819V23.1179L16 22.3179V24.8819ZM13.3333 20.7178L14.8713 21.3332L13.3333 21.9485L11.7953 21.3332L13.3333 20.7178ZM10.6666 22.3179L12.6666 23.1179V25.6819L10.6666 24.8819V22.3179Z" fill="#67AA82"/>
<path d="M25.0353 23.2665L27.702 24.5999C27.7945 24.6461 27.8965 24.6702 28 24.6702C28.1034 24.6702 28.2054 24.6461 28.298 24.5999L30.9646 23.2665C31.076 23.2109 31.1695 23.1252 31.2347 23.0192C31.2998 22.9131 31.334 22.791 31.3333 22.6665V19.9998C31.3334 19.8862 31.3044 19.7744 31.2491 19.6751C31.1937 19.5758 31.114 19.4923 31.0173 19.4325C31 19.4218 30.9646 19.4032 30.9646 19.4032L28.298 18.0698C28.2054 18.0236 28.1034 17.9995 28 17.9995C27.8965 17.9995 27.7945 18.0236 27.702 18.0698L25.0353 19.4032C25.0353 19.4032 25 19.4218 24.9826 19.4325C24.886 19.4923 24.8062 19.5758 24.7509 19.6751C24.6956 19.7744 24.6666 19.8862 24.6666 19.9998V22.6665C24.666 22.791 24.7001 22.9131 24.7653 23.0192C24.8304 23.1252 24.924 23.2109 25.0353 23.2665ZM30 22.2545L28.6666 22.9212V21.7452L30 21.0785V22.2545ZM28 19.4118L29.176 19.9998L28 20.5878L26.824 19.9998L28 19.4118ZM26 21.0785L27.3333 21.7452V22.9212L26 22.2545V21.0785Z" fill="#67AA82"/>
<path d="M33.3334 25.9999H30.6667V27.3332H34.6667V21.9998H33.3334V25.9999Z" fill="#67AA82"/>
<path d="M34 16.4511V12.6664H32.6667V15.5485L29.752 16.7138L30.248 17.9525L34 16.4511Z" fill="#67AA82"/>
<path d="M7.33333 9.99976H6V16.4391L11.0707 18.6125L11.596 17.3871L7.33333 15.5605V9.99976Z" fill="#67AA82"/>
<path d="M19.3333 21.3332H20.6666V22.6665H19.3333V21.3332Z" fill="#67AA82"/>
<path d="M6.66669 25.3332H8.00002V26.6666H6.66669V25.3332Z" fill="#67AA82"/>
<path d="M21.3333 23.9999H22.6666V25.3332H21.3333V23.9999Z" fill="#67AA82"/>
</svg>
